<svg viewBox="0 0 150 100" fill="none" xmlns="http://www.w3.org/2000/svg">
<g id="form-date">
<path id="Rectangle 1" d="M16 15C16 12.7909 17.7909 11 20 11H131C132.657 11 134 12.3431 134 14V86C134 87.6569 132.657 89 131 89H19C17.3431 89 16 87.6569 16 86V15Z" stroke="#AAAAAA" stroke-width="2" stroke-linecap="round" stroke-dasharray="5 5"/>
<g id="Badge">
<g clip-path="url(#clip0_4_94)">
<rect x="23" y="18" width="39" height="13" rx="6.5" fill="#426698"/>
<path id="FORM" d="M28.7 28.5V21.3H33.1V22.66H30.06V24.22H32.5V25.58H30.06V28.5H28.7ZM37.0927 28.65C36.3727 28.65 35.7511 28.4933 35.2277 28.18C34.7077 27.8667 34.3061 27.4283 34.0227 26.865C33.7427 26.3017 33.6027 25.6467 33.6027 24.9C33.6027 24.1533 33.7427 23.4983 34.0227 22.935C34.3061 22.3717 34.7077 21.9333 35.2277 21.62C35.7511 21.3067 36.3727 21.15 37.0927 21.15C37.8127 21.15 38.4327 21.3067 38.9527 21.62C39.4761 21.9333 39.8777 22.3717 40.1577 22.935C40.4411 23.4983 40.5827 24.1533 40.5827 24.9C40.5827 25.6467 40.4411 26.3017 40.1577 26.865C39.8777 27.4283 39.4761 27.8667 38.9527 28.18C38.4327 28.4933 37.8127 28.65 37.0927 28.65ZM37.0927 27.37C37.5494 27.3767 37.9294 27.2783 38.2327 27.075C38.5361 26.8717 38.7627 26.5833 38.9127 26.21C39.0661 25.8367 39.1427 25.4 39.1427 24.9C39.1427 24.4 39.0661 23.9667 38.9127 23.6C38.7627 23.2333 38.5361 22.9483 38.2327 22.745C37.9294 22.5417 37.5494 22.4367 37.0927 22.43C36.6361 22.4233 36.2561 22.5217 35.9527 22.725C35.6494 22.9283 35.4211 23.2167 35.2677 23.59C35.1177 23.9633 35.0427 24.4 35.0427 24.9C35.0427 25.4 35.1177 25.8333 35.2677 26.2C35.4211 26.5667 35.6494 26.8517 35.9527 27.055C36.2561 27.2583 36.6361 27.3633 37.0927 27.37ZM41.5809 28.5V21.3H44.6209C44.6909 21.3 44.7842 21.3033 44.9009 21.31C45.0209 21.3133 45.1275 21.3233 45.2209 21.34C45.6509 21.4067 46.0025 21.5483 46.2759 21.765C46.5525 21.9817 46.7559 22.255 46.8859 22.585C47.0159 22.9117 47.0809 23.2767 47.0809 23.68C47.0809 24.2833 46.9309 24.8 46.6309 25.23C46.3309 25.6567 45.8609 25.92 45.2209 26.02L44.6209 26.06H42.9409V28.5H41.5809ZM45.6409 28.5L44.2209 25.57L45.6209 25.3L47.1809 28.5H45.6409ZM42.9409 24.79H44.5609C44.6309 24.79 44.7075 24.7867 44.7909 24.78C44.8742 24.7733 44.9509 24.76 45.0209 24.74C45.2042 24.69 45.3459 24.6067 45.4459 24.49C45.5459 24.37 45.6142 24.2383 45.6509 24.095C45.6909 23.9483 45.7109 23.81 45.7109 23.68C45.7109 23.55 45.6909 23.4133 45.6509 23.27C45.6142 23.1233 45.5459 22.9917 45.4459 22.875C45.3459 22.755 45.2042 22.67 45.0209 22.62C44.9509 22.6 44.8742 22.5867 44.7909 22.58C44.7075 22.5733 44.6309 22.57 44.5609 22.57H42.9409V24.79ZM48.2801 28.5V21.3H49.5001L51.8801 26.08L54.2601 21.3H55.4801V28.5H54.2101V24.2L52.1201 28.5H51.6401L49.5501 24.2V28.5H48.2801Z" fill="white"/>
</g>
</g>
<g id="Ebene_1" clip-path="url(#clip1_4_94)">
<g id="Group" opacity="0.75">
<path id="Vector" d="M91.55 44.92H57.61C56.8534 44.92 56.24 45.5334 56.24 46.29V75.34C56.24 76.0966 56.8534 76.71 57.61 76.71H91.55C92.3066 76.71 92.92 76.0966 92.92 75.34V46.29C92.92 45.5334 92.3066 44.92 91.55 44.92Z" stroke="#AAAAAA" stroke-width="2.47" stroke-miterlimit="10"/>
<path id="Vector_2" d="M71.83 58.62H70.2C69.4434 58.62 68.83 59.2334 68.83 59.99V61.62C68.83 62.3766 69.4434 62.99 70.2 62.99H71.83C72.5866 62.99 73.2 62.3766 73.2 61.62V59.99C73.2 59.2334 72.5866 58.62 71.83 58.62Z" fill="#AAAAAA"/>
<path id="Vector_3" d="M78.95 58.62H77.32C76.5634 58.62 75.95 59.2334 75.95 59.99V61.62C75.95 62.3766 76.5634 62.99 77.32 62.99H78.95C79.7066 62.99 80.32 62.3766 80.32 61.62V59.99C80.32 59.2334 79.7066 58.62 78.95 58.62Z" fill="#AAAAAA"/>
<path id="Vector_4" d="M86.06 58.62H84.43C83.6734 58.62 83.06 59.2334 83.06 59.99V61.62C83.06 62.3766 83.6734 62.99 84.43 62.99H86.06C86.8166 62.99 87.43 62.3766 87.43 61.62V59.99C87.43 59.2334 86.8166 58.62 86.06 58.62Z" fill="#AAAAAA"/>
<path id="Vector_5" d="M64.72 65.55H63.09C62.3334 65.55 61.72 66.1634 61.72 66.92V68.55C61.72 69.3066 62.3334 69.92 63.09 69.92H64.72C65.4766 69.92 66.09 69.3066 66.09 68.55V66.92C66.09 66.1634 65.4766 65.55 64.72 65.55Z" fill="#AAAAAA"/>
<path id="Vector_6" d="M71.83 65.55H70.2C69.4434 65.55 68.83 66.1634 68.83 66.92V68.55C68.83 69.3066 69.4434 69.92 70.2 69.92H71.83C72.5866 69.92 73.2 69.3066 73.2 68.55V66.92C73.2 66.1634 72.5866 65.55 71.83 65.55Z" fill="#AAAAAA"/>
<path id="Vector_7" d="M78.95 65.55H77.32C76.5634 65.55 75.95 66.1634 75.95 66.92V68.55C75.95 69.3066 76.5634 69.92 77.32 69.92H78.95C79.7066 69.92 80.32 69.3066 80.32 68.55V66.92C80.32 66.1634 79.7066 65.55 78.95 65.55Z" fill="#AAAAAA"/>
<path id="Vector_8" d="M86.06 65.55H84.43C83.6734 65.55 83.06 66.1634 83.06 66.92V68.55C83.06 69.3066 83.6734 69.92 84.43 69.92H86.06C86.8166 69.92 87.43 69.3066 87.43 68.55V66.92C87.43 66.1634 86.8166 65.55 86.06 65.55Z" fill="#AAAAAA"/>
<path id="Vector_9" d="M64.21 41.37C64.21 40.6134 63.5966 40 62.84 40C62.0834 40 61.47 40.6134 61.47 41.37V43.55C61.47 44.3066 62.0834 44.92 62.84 44.92C63.5966 44.92 64.21 44.3066 64.21 43.55V41.37Z" fill="#AAAAAA"/>
<path id="Vector_10" d="M87.68 41.37C87.68 40.6134 87.0666 40 86.31 40C85.5534 40 84.94 40.6134 84.94 41.37V43.55C84.94 44.3066 85.5534 44.92 86.31 44.92C87.0666 44.92 87.68 44.3066 87.68 43.55V41.37Z" fill="#AAAAAA"/>
<path id="Vector_11" d="M91.14 45.65H58.01C57.2534 45.65 56.64 46.2634 56.64 47.02V51.67C56.64 52.4266 57.2534 53.04 58.01 53.04H91.14C91.8966 53.04 92.51 52.4266 92.51 51.67V47.02C92.51 46.2634 91.8966 45.65 91.14 45.65Z" fill="#AAAAAA"/>
</g>
</g>
</g>
<defs>
<clipPath id="clip0_4_94">
<rect x="23" y="18" width="39" height="13" rx="6.5" fill="white"/>
</clipPath>
<clipPath id="clip1_4_94">
<rect width="39.15" height="37.94" fill="white" transform="translate(55 40)"/>
</clipPath>
</defs>
</svg>
