<svg viewBox="0 0 150 100" fill="none" xmlns="http://www.w3.org/2000/svg">
<g id="form-hidden">
<path id="Rectangle 1" d="M16 15C16 12.7909 17.7909 11 20 11H131C132.657 11 134 12.3431 134 14V86C134 87.6569 132.657 89 131 89H19C17.3431 89 16 87.6569 16 86V15Z" stroke="#AAAAAA" stroke-width="2" stroke-linecap="round" stroke-dasharray="5 5"/>
<g id="Badge">
<g clip-path="url(#clip0_4_161)">
<rect x="23" y="18" width="39" height="13" rx="6.5" fill="#426698"/>
<path id="FORM" d="M28.7 28.5V21.3H33.1V22.66H30.06V24.22H32.5V25.58H30.06V28.5H28.7ZM37.0927 28.65C36.3727 28.65 35.7511 28.4933 35.2277 28.18C34.7077 27.8667 34.3061 27.4283 34.0227 26.865C33.7427 26.3017 33.6027 25.6467 33.6027 24.9C33.6027 24.1533 33.7427 23.4983 34.0227 22.935C34.3061 22.3717 34.7077 21.9333 35.2277 21.62C35.7511 21.3067 36.3727 21.15 37.0927 21.15C37.8127 21.15 38.4327 21.3067 38.9527 21.62C39.4761 21.9333 39.8777 22.3717 40.1577 22.935C40.4411 23.4983 40.5827 24.1533 40.5827 24.9C40.5827 25.6467 40.4411 26.3017 40.1577 26.865C39.8777 27.4283 39.4761 27.8667 38.9527 28.18C38.4327 28.4933 37.8127 28.65 37.0927 28.65ZM37.0927 27.37C37.5494 27.3767 37.9294 27.2783 38.2327 27.075C38.5361 26.8717 38.7627 26.5833 38.9127 26.21C39.0661 25.8367 39.1427 25.4 39.1427 24.9C39.1427 24.4 39.0661 23.9667 38.9127 23.6C38.7627 23.2333 38.5361 22.9483 38.2327 22.745C37.9294 22.5417 37.5494 22.4367 37.0927 22.43C36.6361 22.4233 36.2561 22.5217 35.9527 22.725C35.6494 22.9283 35.4211 23.2167 35.2677 23.59C35.1177 23.9633 35.0427 24.4 35.0427 24.9C35.0427 25.4 35.1177 25.8333 35.2677 26.2C35.4211 26.5667 35.6494 26.8517 35.9527 27.055C36.2561 27.2583 36.6361 27.3633 37.0927 27.37ZM41.5809 28.5V21.3H44.6209C44.6909 21.3 44.7842 21.3033 44.9009 21.31C45.0209 21.3133 45.1275 21.3233 45.2209 21.34C45.6509 21.4067 46.0025 21.5483 46.2759 21.765C46.5525 21.9817 46.7559 22.255 46.8859 22.585C47.0159 22.9117 47.0809 23.2767 47.0809 23.68C47.0809 24.2833 46.9309 24.8 46.6309 25.23C46.3309 25.6567 45.8609 25.92 45.2209 26.02L44.6209 26.06H42.9409V28.5H41.5809ZM45.6409 28.5L44.2209 25.57L45.6209 25.3L47.1809 28.5H45.6409ZM42.9409 24.79H44.5609C44.6309 24.79 44.7075 24.7867 44.7909 24.78C44.8742 24.7733 44.9509 24.76 45.0209 24.74C45.2042 24.69 45.3459 24.6067 45.4459 24.49C45.5459 24.37 45.6142 24.2383 45.6509 24.095C45.6909 23.9483 45.7109 23.81 45.7109 23.68C45.7109 23.55 45.6909 23.4133 45.6509 23.27C45.6142 23.1233 45.5459 22.9917 45.4459 22.875C45.3459 22.755 45.2042 22.67 45.0209 22.62C44.9509 22.6 44.8742 22.5867 44.7909 22.58C44.7075 22.5733 44.6309 22.57 44.5609 22.57H42.9409V24.79ZM48.2801 28.5V21.3H49.5001L51.8801 26.08L54.2601 21.3H55.4801V28.5H54.2101V24.2L52.1201 28.5H51.6401L49.5501 24.2V28.5H48.2801Z" fill="white"/>
</g>
</g>
<g id="Ebene_1" clip-path="url(#clip1_4_161)">
<g id="Group" opacity="0.25">
<path id="Vector" d="M124.37 54H26.43C24.5357 54 23 55.5357 23 57.43V79.31C23 81.2043 24.5357 82.74 26.43 82.74H124.37C126.264 82.74 127.8 81.2043 127.8 79.31V57.43C127.8 55.5357 126.264 54 124.37 54Z" fill="#AAAAAA" fill-opacity="0.75"/>
</g>
<g id="Group_2" opacity="0.75">
<path id="Vector_2" d="M124.36 56.29C124.99 56.29 125.5 56.8 125.5 57.43V79.3C125.5 79.93 124.99 80.44 124.36 80.44H26.43C25.8 80.44 25.29 79.93 25.29 79.3V57.43C25.29 56.8 25.8 56.29 26.43 56.29H124.36ZM124.36 54H26.43C24.54 54 23 55.54 23 57.43V79.3C23 81.2 24.54 82.74 26.43 82.74H124.36C126.26 82.74 127.79 81.2 127.79 79.31V57.43C127.79 55.53 126.25 54 124.36 54Z" fill="#AAAAAA"/>
</g>
<path id="Vector_3" d="M81.71 76.1C81.49 76.1 81.28 76.01 81.12 75.84L68.5 61.96C68.21 61.64 68.23 61.13 68.55 60.84C68.87 60.55 69.38 60.57 69.67 60.89L82.29 74.77C82.58 75.09 82.56 75.6 82.24 75.89C82.09 76.03 81.9 76.1 81.71 76.1Z" fill="#AAAAAA"/>
<path id="Vector_4" d="M75.4 72.32C75.34 72.32 75.27 72.32 75.21 72.32C74.7 72.3 74.2 72.17 73.74 71.96C73.26 71.74 72.83 71.43 72.48 71.03C72.12 70.64 71.85 70.18 71.68 69.68C71.51 69.2 71.44 68.69 71.46 68.18C71.48 67.67 71.61 67.17 71.82 66.71C72.04 66.23 72.35 65.8 72.75 65.45C73.07 65.16 73.58 65.18 73.87 65.5C74.16 65.82 74.14 66.33 73.82 66.62C73.35 67.04 73.08 67.62 73.05 68.26C73.02 68.89 73.24 69.49 73.66 69.96C74.08 70.43 74.66 70.7 75.3 70.73C75.93 70.76 76.53 70.54 77 70.12C77.32 69.83 77.83 69.85 78.12 70.17C78.41 70.49 78.39 71 78.07 71.29C77.68 71.65 77.22 71.92 76.72 72.09C76.3 72.24 75.86 72.31 75.41 72.31L75.4 72.32Z" fill="#AAAAAA"/>
<path id="Vector_5" d="M75.47 74.84C75.47 74.84 75.42 74.84 75.39 74.84C73.83 74.84 72.36 74.52 71.01 73.88C69.93 73.37 68.94 72.66 68.05 71.77C66.54 70.26 65.86 68.76 65.84 68.69C65.75 68.48 65.75 68.25 65.84 68.05C65.86 68.02 66.23 67.19 67.02 66.16C67.48 65.56 67.99 65.01 68.54 64.52C69.23 63.9 69.99 63.39 70.78 62.99C71.17 62.79 71.65 62.95 71.85 63.34C72.05 63.73 71.89 64.21 71.5 64.41C70.84 64.75 70.2 65.18 69.62 65.69C69.15 66.11 68.71 66.58 68.31 67.1C67.9 67.63 67.62 68.09 67.46 68.39C67.72 68.86 68.3 69.79 69.22 70.71C69.98 71.46 70.82 72.06 71.73 72.48C72.86 73.01 74.09 73.28 75.4 73.28C76.07 73.28 76.75 73.21 77.4 73.06C78.06 72.91 78.69 72.68 79.29 72.37C79.68 72.17 80.16 72.33 80.36 72.72C80.56 73.11 80.4 73.59 80.01 73.79C79.3 74.15 78.54 74.42 77.76 74.6C77.01 74.78 76.24 74.86 75.47 74.86V74.84Z" fill="#AAAAAA"/>
<path id="Vector_6" d="M81.76 72.4C81.54 72.4 81.33 72.31 81.17 72.14C80.88 71.81 80.91 71.31 81.23 71.02C81.68 70.62 82.34 69.94 82.96 69.01C83.13 68.76 83.26 68.54 83.35 68.37C83.09 67.9 82.51 66.97 81.59 66.05C80.83 65.3 79.99 64.7 79.08 64.28C77.95 63.75 76.72 63.48 75.41 63.48C75.41 63.48 75.4 63.48 75.39 63.48C74.89 63.48 74.39 63.52 73.9 63.6C73.47 63.67 73.06 63.38 72.99 62.95C72.92 62.52 73.21 62.11 73.64 62.04C74.22 61.94 74.81 61.9 75.4 61.9C76.96 61.9 78.43 62.22 79.78 62.86C80.86 63.37 81.85 64.08 82.74 64.97C84.25 66.48 84.93 67.98 84.95 68.05C85.04 68.26 85.04 68.49 84.95 68.69C84.92 68.77 84.1 70.57 82.28 72.2C82.13 72.34 81.94 72.4 81.75 72.4H81.76Z" fill="#AAAAAA"/>
<path id="Vector_7" d="M78.54 68.87C78.14 68.87 77.79 68.56 77.75 68.15C77.7 67.64 77.49 67.16 77.15 66.78C76.8 66.4 76.35 66.15 75.85 66.05C75.42 65.97 75.14 65.55 75.22 65.12C75.3 64.69 75.72 64.41 76.15 64.49C76.57 64.57 76.98 64.72 77.35 64.93C77.71 65.14 78.04 65.4 78.33 65.71C78.61 66.02 78.84 66.37 79.01 66.76C79.19 67.15 79.29 67.57 79.34 68C79.38 68.44 79.06 68.82 78.63 68.86C78.6 68.86 78.58 68.86 78.55 68.86L78.54 68.87Z" fill="#AAAAAA"/>
</g>
</g>
<defs>
<clipPath id="clip0_4_161">
<rect x="23" y="18" width="39" height="13" rx="6.5" fill="white"/>
</clipPath>
<clipPath id="clip1_4_161">
<rect width="104.8" height="28.74" fill="white" transform="translate(23 54)"/>
</clipPath>
</defs>
</svg>
