<svg viewBox="0 0 150 100" fill="none" xmlns="http://www.w3.org/2000/svg">
<g id="form-checkbox">
<path id="Rectangle 1" d="M16 15C16 12.7909 17.7909 11 20 11H131C132.657 11 134 12.3431 134 14V86C134 87.6569 132.657 89 131 89H19C17.3431 89 16 87.6569 16 86V15Z" stroke="#AAAAAA" stroke-width="2" stroke-linecap="round" stroke-dasharray="5 5"/>
<g id="Badge">
<g clip-path="url(#clip0_4_143)">
<rect x="23" y="18" width="39" height="13" rx="6.5" fill="#426698"/>
<path id="FORM" d="M28.7 28.5V21.3H33.1V22.66H30.06V24.22H32.5V25.58H30.06V28.5H28.7ZM37.0927 28.65C36.3727 28.65 35.7511 28.4933 35.2277 28.18C34.7077 27.8667 34.3061 27.4283 34.0227 26.865C33.7427 26.3017 33.6027 25.6467 33.6027 24.9C33.6027 24.1533 33.7427 23.4983 34.0227 22.935C34.3061 22.3717 34.7077 21.9333 35.2277 21.62C35.7511 21.3067 36.3727 21.15 37.0927 21.15C37.8127 21.15 38.4327 21.3067 38.9527 21.62C39.4761 21.9333 39.8777 22.3717 40.1577 22.935C40.4411 23.4983 40.5827 24.1533 40.5827 24.9C40.5827 25.6467 40.4411 26.3017 40.1577 26.865C39.8777 27.4283 39.4761 27.8667 38.9527 28.18C38.4327 28.4933 37.8127 28.65 37.0927 28.65ZM37.0927 27.37C37.5494 27.3767 37.9294 27.2783 38.2327 27.075C38.5361 26.8717 38.7627 26.5833 38.9127 26.21C39.0661 25.8367 39.1427 25.4 39.1427 24.9C39.1427 24.4 39.0661 23.9667 38.9127 23.6C38.7627 23.2333 38.5361 22.9483 38.2327 22.745C37.9294 22.5417 37.5494 22.4367 37.0927 22.43C36.6361 22.4233 36.2561 22.5217 35.9527 22.725C35.6494 22.9283 35.4211 23.2167 35.2677 23.59C35.1177 23.9633 35.0427 24.4 35.0427 24.9C35.0427 25.4 35.1177 25.8333 35.2677 26.2C35.4211 26.5667 35.6494 26.8517 35.9527 27.055C36.2561 27.2583 36.6361 27.3633 37.0927 27.37ZM41.5809 28.5V21.3H44.6209C44.6909 21.3 44.7842 21.3033 44.9009 21.31C45.0209 21.3133 45.1275 21.3233 45.2209 21.34C45.6509 21.4067 46.0025 21.5483 46.2759 21.765C46.5525 21.9817 46.7559 22.255 46.8859 22.585C47.0159 22.9117 47.0809 23.2767 47.0809 23.68C47.0809 24.2833 46.9309 24.8 46.6309 25.23C46.3309 25.6567 45.8609 25.92 45.2209 26.02L44.6209 26.06H42.9409V28.5H41.5809ZM45.6409 28.5L44.2209 25.57L45.6209 25.3L47.1809 28.5H45.6409ZM42.9409 24.79H44.5609C44.6309 24.79 44.7075 24.7867 44.7909 24.78C44.8742 24.7733 44.9509 24.76 45.0209 24.74C45.2042 24.69 45.3459 24.6067 45.4459 24.49C45.5459 24.37 45.6142 24.2383 45.6509 24.095C45.6909 23.9483 45.7109 23.81 45.7109 23.68C45.7109 23.55 45.6909 23.4133 45.6509 23.27C45.6142 23.1233 45.5459 22.9917 45.4459 22.875C45.3459 22.755 45.2042 22.67 45.0209 22.62C44.9509 22.6 44.8742 22.5867 44.7909 22.58C44.7075 22.5733 44.6309 22.57 44.5609 22.57H42.9409V24.79ZM48.2801 28.5V21.3H49.5001L51.8801 26.08L54.2601 21.3H55.4801V28.5H54.2101V24.2L52.1201 28.5H51.6401L49.5501 24.2V28.5H48.2801Z" fill="white"/>
</g>
</g>
<g id="Group" opacity="0.75">
<path id="Vector" d="M47.94 63C48.49 63 48.94 63.45 48.94 64V74.94C48.94 75.49 48.49 75.94 47.94 75.94H37C36.45 75.94 36 75.49 36 74.94V64C36 63.45 36.45 63 37 63H47.94ZM47.94 61H37C35.34 61 34 62.34 34 64V74.94C34 76.6 35.34 77.94 37 77.94H47.94C49.6 77.94 50.94 76.6 50.94 74.94V64C50.94 62.34 49.6 61 47.94 61Z" fill="#AAAAAA"/>
</g>
<path id="Vector_2" d="M50.82 59.5L43.66 71.76L37.99 67.5" stroke="#AAAAAA" stroke-width="3" stroke-linecap="round" stroke-linejoin="round"/>
<path id="Checkbox" d="M60.548 74.18C59.684 74.18 58.938 73.992 58.31 73.616C57.686 73.24 57.204 72.714 56.864 72.038C56.528 71.362 56.36 70.576 56.36 69.68C56.36 68.784 56.528 67.998 56.864 67.322C57.204 66.646 57.686 66.12 58.31 65.744C58.938 65.368 59.684 65.18 60.548 65.18C61.54 65.18 62.372 65.426 63.044 65.918C63.72 66.41 64.196 67.076 64.472 67.916L62.828 68.372C62.668 67.848 62.398 67.442 62.018 67.154C61.638 66.862 61.148 66.716 60.548 66.716C60 66.716 59.542 66.838 59.174 67.082C58.81 67.326 58.536 67.67 58.352 68.114C58.168 68.558 58.076 69.08 58.076 69.68C58.076 70.28 58.168 70.802 58.352 71.246C58.536 71.69 58.81 72.034 59.174 72.278C59.542 72.522 60 72.644 60.548 72.644C61.148 72.644 61.638 72.498 62.018 72.206C62.398 71.914 62.668 71.508 62.828 70.988L64.472 71.444C64.196 72.284 63.72 72.95 63.044 73.442C62.372 73.934 61.54 74.18 60.548 74.18ZM70.2091 74V70.94C70.2091 70.792 70.2011 70.604 70.1851 70.376C70.1691 70.144 70.1191 69.912 70.0351 69.68C69.9511 69.448 69.8131 69.254 69.6211 69.098C69.4331 68.942 69.1651 68.864 68.8171 68.864C68.6771 68.864 68.5271 68.886 68.3671 68.93C68.2071 68.974 68.0571 69.06 67.9171 69.188C67.7771 69.312 67.6611 69.496 67.5691 69.74C67.4811 69.984 67.4371 70.308 67.4371 70.712L66.5011 70.268C66.5011 69.756 66.6051 69.276 66.8131 68.828C67.0211 68.38 67.3331 68.018 67.7491 67.742C68.1691 67.466 68.6971 67.328 69.3331 67.328C69.8411 67.328 70.2551 67.414 70.5751 67.586C70.8951 67.758 71.1431 67.976 71.3191 68.24C71.4991 68.504 71.6271 68.78 71.7031 69.068C71.7791 69.352 71.8251 69.612 71.8411 69.848C71.8571 70.084 71.8651 70.256 71.8651 70.364V74H70.2091ZM65.7811 74V65.36H67.2331V69.8H67.4371V74H65.7811ZM76.434 74.18C75.77 74.18 75.184 74.038 74.676 73.754C74.172 73.466 73.776 73.072 73.488 72.572C73.204 72.068 73.062 71.492 73.062 70.844C73.062 70.136 73.202 69.52 73.482 68.996C73.762 68.472 74.148 68.066 74.64 67.778C75.132 67.486 75.698 67.34 76.338 67.34C77.018 67.34 77.596 67.5 78.072 67.82C78.548 68.14 78.9 68.59 79.128 69.17C79.356 69.75 79.436 70.432 79.368 71.216H77.754V70.616C77.754 69.956 77.648 69.482 77.436 69.194C77.228 68.902 76.886 68.756 76.41 68.756C75.854 68.756 75.444 68.926 75.18 69.266C74.92 69.602 74.79 70.1 74.79 70.76C74.79 71.364 74.92 71.832 75.18 72.164C75.444 72.492 75.83 72.656 76.338 72.656C76.658 72.656 76.932 72.586 77.16 72.446C77.388 72.306 77.562 72.104 77.682 71.84L79.314 72.308C79.07 72.9 78.684 73.36 78.156 73.688C77.632 74.016 77.058 74.18 76.434 74.18ZM74.286 71.216V70.004H78.582V71.216H74.286ZM83.5788 74.18C82.9068 74.18 82.3308 74.03 81.8508 73.73C81.3708 73.43 81.0028 73.022 80.7468 72.506C80.4908 71.99 80.3628 71.408 80.3628 70.76C80.3628 70.104 80.4948 69.518 80.7588 69.002C81.0268 68.486 81.4028 68.08 81.8868 67.784C82.3708 67.488 82.9428 67.34 83.6028 67.34C84.3668 67.34 85.0068 67.534 85.5228 67.922C86.0428 68.306 86.3748 68.832 86.5188 69.5L84.8868 69.932C84.7908 69.596 84.6228 69.334 84.3828 69.146C84.1468 68.958 83.8788 68.864 83.5788 68.864C83.2348 68.864 82.9528 68.948 82.7328 69.116C82.5128 69.28 82.3508 69.506 82.2468 69.794C82.1428 70.078 82.0908 70.4 82.0908 70.76C82.0908 71.324 82.2148 71.782 82.4628 72.134C82.7148 72.482 83.0868 72.656 83.5788 72.656C83.9468 72.656 84.2268 72.572 84.4188 72.404C84.6108 72.236 84.7548 71.996 84.8508 71.684L86.5188 72.032C86.3348 72.72 85.9868 73.25 85.4748 73.622C84.9628 73.994 84.3308 74.18 83.5788 74.18ZM87.7069 74L87.7189 65.36H89.3749V70.64L91.5709 67.52H93.5869L91.2469 70.76L93.7429 74H91.6189L89.3749 70.88V74H87.7069ZM97.52 74.18C96.876 74.18 96.338 74.03 95.906 73.73C95.474 73.43 95.148 73.022 94.928 72.506C94.712 71.99 94.604 71.408 94.604 70.76C94.604 70.112 94.712 69.53 94.928 69.014C95.144 68.498 95.462 68.09 95.882 67.79C96.302 67.49 96.82 67.34 97.436 67.34C98.056 67.34 98.596 67.488 99.056 67.784C99.516 68.08 99.872 68.486 100.124 69.002C100.38 69.514 100.508 70.1 100.508 70.76C100.508 71.408 100.382 71.99 100.13 72.506C99.882 73.022 99.534 73.43 99.086 73.73C98.638 74.03 98.116 74.18 97.52 74.18ZM94.328 74V65.36H95.972V69.56H95.768V74H94.328ZM97.256 72.728C97.608 72.728 97.896 72.64 98.12 72.464C98.344 72.288 98.51 72.052 98.618 71.756C98.726 71.456 98.78 71.124 98.78 70.76C98.78 70.4 98.724 70.072 98.612 69.776C98.5 69.476 98.326 69.238 98.09 69.062C97.858 68.882 97.56 68.792 97.196 68.792C96.856 68.792 96.58 68.874 96.368 69.038C96.16 69.202 96.008 69.432 95.912 69.728C95.816 70.024 95.768 70.368 95.768 70.76C95.768 71.152 95.816 71.496 95.912 71.792C96.008 72.088 96.164 72.318 96.38 72.482C96.6 72.646 96.892 72.728 97.256 72.728ZM104.744 74.18C104.092 74.18 103.52 74.034 103.028 73.742C102.536 73.45 102.152 73.048 101.876 72.536C101.604 72.02 101.468 71.428 101.468 70.76C101.468 70.084 101.608 69.49 101.888 68.978C102.168 68.462 102.554 68.06 103.046 67.772C103.538 67.484 104.104 67.34 104.744 67.34C105.396 67.34 105.968 67.486 106.46 67.778C106.956 68.07 107.342 68.474 107.618 68.99C107.894 69.502 108.032 70.092 108.032 70.76C108.032 71.432 107.892 72.026 107.612 72.542C107.336 73.054 106.95 73.456 106.454 73.748C105.962 74.036 105.392 74.18 104.744 74.18ZM104.744 72.656C105.268 72.656 105.658 72.48 105.914 72.128C106.174 71.772 106.304 71.316 106.304 70.76C106.304 70.184 106.172 69.724 105.908 69.38C105.648 69.036 105.26 68.864 104.744 68.864C104.388 68.864 104.096 68.944 103.868 69.104C103.64 69.264 103.47 69.486 103.358 69.77C103.25 70.054 103.196 70.384 103.196 70.76C103.196 71.34 103.326 71.802 103.586 72.146C103.85 72.486 104.236 72.656 104.744 72.656ZM108.397 74L110.713 70.724L108.445 67.52H110.365L111.661 69.44L112.933 67.52H114.853L112.585 70.724L114.913 74H112.993L111.661 72.008L110.317 74H108.397Z" fill="#AAAAAA"/>
</g>
<defs>
<clipPath id="clip0_4_143">
<rect x="23" y="18" width="39" height="13" rx="6.5" fill="white"/>
</clipPath>
</defs>
</svg>
