<?xml version="1.0" encoding="utf-8"?>
<!-- Generator: Adobe Illustrator 27.8.1, SVG Export Plug-In . SVG Version: 6.00 Build 0)  -->
<svg version="1.1" id="Ebene_1" xmlns="http://www.w3.org/2000/svg" xmlns:xlink="http://www.w3.org/1999/xlink" x="0px" y="0px"
	 viewBox="0 0 150 100" style="enable-background:new 0 0 150 100;" xml:space="preserve">
<style type="text/css">
	.st0{fill:#AAAAAA;}
	.st1{fill:#FFFFFF;}
	.st2{fill:#AAAAAA;stroke:#AAAAAA;stroke-width:2;stroke-miterlimit:10;}
	.st3{fill:none;stroke:#AAAAAA;stroke-width:2;stroke-miterlimit:10;}
</style>
<desc>Created with Sketch.</desc>
<g>
	<path class="st0" d="M118.9,16.3h-5v2h5V16.3L118.9,16.3z M111.9,16.3h-5v2h5V16.3L111.9,16.3z M104.9,16.3h-5v2h5V16.3L104.9,16.3
		z M97.9,16.3h-5v2h5V16.3L97.9,16.3z M90.9,16.3h-5v2h5V16.3L90.9,16.3z M83.9,16.3h-5v2h5V16.3L83.9,16.3z M76.9,16.3h-5v2h5V16.3
		L76.9,16.3z M69.9,16.3h-5v2h5V16.3L69.9,16.3z M62.9,16.3h-5v2h5V16.3L62.9,16.3z M55.9,16.3h-5v2h5V16.3L55.9,16.3z M48.9,16.3
		h-5v2h5V16.3L48.9,16.3z M41.9,16.3h-5v2h5V16.3L41.9,16.3z M34.9,16.3h-5v2h5V16.3L34.9,16.3z M27.9,16.3h-3.7v2h3.7V16.3
		L27.9,16.3z M26.1,19.6h-2v5h2V19.6L26.1,19.6z M26.1,26.6h-2v5h2V26.6L26.1,26.6z M26.1,33.6h-2v5h2V33.6L26.1,33.6z M26.1,40.6
		h-2v5h2V40.6L26.1,40.6z M26.1,47.6h-2v5h2V47.6L26.1,47.6z M26.1,54.6h-2v5h2V54.6L26.1,54.6z M26.1,61.6h-2v5h2V61.6L26.1,61.6z
		 M26.1,68.6h-2v5h2V68.6L26.1,68.6z M26.1,75.6h-2v5h2V75.6L26.1,75.6z M28,81.7h-3.9v0.9l0,0v-0.9v0.9l0,0v1.1h2l0,0l0,0l0,0l0,0
		c1,0,1.9,0,1.9,0V81.7L28,81.7z M35,81.7h-5v2h5V81.7L35,81.7z M42,81.7h-5v2h5V81.7L42,81.7z M49,81.7h-5v2h5V81.7L49,81.7z
		 M56,81.7h-5v2h5V81.7L56,81.7z M63,81.7h-5v2h5V81.7L63,81.7z M70,81.7h-5v2h5V81.7L70,81.7z M77,81.7h-5v2h5V81.7L77,81.7z
		 M84,81.7h-5v2h5V81.7L84,81.7z M91,81.7h-5v2h5V81.7L91,81.7z M98,81.7h-5v2h5V81.7L98,81.7z M105,81.7h-5v2h5V81.7L105,81.7z
		 M112,81.7h-5v2h5V81.7L112,81.7z M119,81.7h-5v2h5V81.7L119,81.7z M125.9,81.7H121v2h4.8V81.7L125.9,81.7z M125.9,76.5h-2v5h2
		V76.5L125.9,76.5z M125.9,69.5h-2v5h2V69.5L125.9,69.5z M125.9,62.5h-2v5h2V62.5L125.9,62.5z M125.9,55.5h-2v5h2V55.5L125.9,55.5z
		 M125.9,48.5h-2v5h2V48.5L125.9,48.5z M125.9,41.5h-2v5h2V41.5L125.9,41.5z M125.9,34.5h-2v5h2V34.5L125.9,34.5z M125.9,27.5h-2v5
		h2V27.5L125.9,27.5z M125.9,20.5h-2v5h2V20.5L125.9,20.5z M125.9,16.3h-5v2h3v0.2h2V16.3L125.9,16.3z"/>
</g>
<g>
	<path class="st0" d="M68.3,39.7H40.8c-3.7,0-6.7-3-6.7-6.7v0c0-3.7,3-6.7,6.7-6.7h27.5c3.7,0,6.7,3,6.7,6.7v0
		C75,36.7,72,39.7,68.3,39.7z"/>
	<g>
		<path class="st1" d="M41.1,36.5v-6.9h4.7v1.2h-3.3v1.6h2.9v1.2h-2.9v2.9H41.1z"/>
		<path class="st1" d="M46.7,33.1c0-0.7,0.1-1.3,0.3-1.8c0.2-0.4,0.4-0.7,0.6-0.9c0.3-0.3,0.6-0.5,0.9-0.6c0.4-0.2,0.9-0.3,1.5-0.3
			c1,0,1.8,0.3,2.4,0.9s0.9,1.5,0.9,2.6c0,1.1-0.3,2-0.9,2.6c-0.6,0.6-1.4,0.9-2.4,0.9c-1,0-1.8-0.3-2.5-0.9S46.7,34.2,46.7,33.1z
			 M48.1,33c0,0.8,0.2,1.4,0.5,1.8c0.4,0.4,0.8,0.6,1.4,0.6c0.6,0,1-0.2,1.4-0.6c0.4-0.4,0.5-1,0.5-1.8c0-0.8-0.2-1.4-0.5-1.8
			c-0.3-0.4-0.8-0.6-1.4-0.6c-0.6,0-1,0.2-1.4,0.6C48.3,31.6,48.1,32.2,48.1,33z"/>
		<path class="st1" d="M54.5,36.5v-6.9h2.9c0.7,0,1.3,0.1,1.6,0.2c0.3,0.1,0.6,0.3,0.8,0.7c0.2,0.3,0.3,0.7,0.3,1.1
			c0,0.5-0.2,0.9-0.5,1.3c-0.3,0.3-0.8,0.6-1.4,0.6c0.3,0.2,0.6,0.4,0.7,0.6c0.2,0.2,0.5,0.6,0.8,1.1l0.8,1.3H59L58,35
			c-0.4-0.5-0.6-0.9-0.7-1c-0.1-0.1-0.3-0.2-0.4-0.3c-0.1-0.1-0.4-0.1-0.7-0.1h-0.3v2.9H54.5z M55.8,32.5h1c0.7,0,1.1,0,1.3-0.1
			c0.2-0.1,0.3-0.2,0.4-0.3c0.1-0.1,0.1-0.3,0.1-0.5c0-0.2-0.1-0.4-0.2-0.6c-0.1-0.1-0.3-0.2-0.5-0.3c-0.1,0-0.5,0-1,0h-1.1V32.5z"
			/>
		<path class="st1" d="M61.4,36.5v-6.9h2.1l1.3,4.7l1.2-4.7h2.1v6.9h-1.3V31l-1.4,5.4h-1.3L62.7,31v5.4H61.4z"/>
	</g>
</g>
<g>
	<polygon class="st2" points="40.1,60.5 42,64.5 46.4,65.1 43.2,68.2 44,72.5 40.1,70.5 36.2,72.5 36.9,68.2 33.8,65.1 38.1,64.5 	
		"/>
	<polygon class="st2" points="57.5,60.5 59.5,64.5 63.9,65.1 60.7,68.2 61.4,72.5 57.5,70.5 53.6,72.5 54.4,68.2 51.2,65.1 
		55.6,64.5 	"/>
	<polygon class="st2" points="75,60.5 77,64.5 81.3,65.1 78.2,68.2 78.9,72.5 75,70.5 71.1,72.5 71.8,68.2 68.7,65.1 73,64.5 	"/>
	<polygon class="st3" points="92.5,60.5 94.4,64.5 98.8,65.1 95.6,68.2 96.4,72.5 92.5,70.5 88.6,72.5 89.3,68.2 86.1,65.1 
		90.5,64.5 	"/>
	<polygon class="st3" points="109.9,60.5 111.9,64.5 116.2,65.1 113.1,68.2 113.8,72.5 109.9,70.5 106,72.5 106.8,68.2 103.6,65.1 
		108,64.5 	"/>
</g>
</svg>
